<svg width="43" height="8" viewBox="0 0 43 8" fill="none" xmlns="http://www.w3.org/2000/svg">
<g clip-path="url(#clip0_143_6305)">
<path fill-rule="evenodd" clip-rule="evenodd" d="M5.6944 6.54863V7.92627H8.63546V3.07543C8.63546 2.23138 8.26001 1.45525 7.65511 0.902256C7.05021 0.339559 6.21586 0 5.28766 0H0V2.69707H1.50182C1.29323 2.81349 1.08465 2.95901 0.907349 3.12394C-0.29202 4.22023 -0.29202 5.99563 0.907349 7.10162C2.10672 8.19791 4.04657 8.19791 5.24594 7.10162C5.41281 6.92699 5.56925 6.74266 5.6944 6.54863ZM16.197 1.13505H17.094V3.25001C17.313 2.94926 17.9074 2.63881 18.5645 2.63881C19.8577 2.63881 20.4418 3.57017 20.4418 4.69556C20.4418 5.82095 19.8786 6.85903 18.5749 6.85903C17.9179 6.85903 17.2713 6.54858 17.0418 6.25753L16.9271 6.75231H15.9259V1.37759C15.9363 1.24176 16.051 1.13505 16.197 1.13505ZM17.0835 4.73437C17.0835 5.42319 17.5216 5.84036 18.2099 5.84036C18.9295 5.84036 19.232 5.43289 19.232 4.73437C19.232 4.04555 18.9295 3.60897 18.2099 3.60897C17.4903 3.60897 17.0835 4.04555 17.0835 4.73437ZM22.1831 2.74558H21.3383C21.1923 2.74558 21.0776 2.85229 21.0567 2.98812V6.74266H22.2352V4.50158C22.3604 3.90978 22.6316 3.50231 23.1113 3.50231C23.3825 3.50231 23.5598 3.64783 23.6328 4.07471L24.6236 3.60902C24.5401 3.05603 24.2481 2.64856 23.5181 2.64856C22.9549 2.64856 22.4856 2.8911 22.1831 3.41499V2.74558ZM29.6089 1.13505H30.5163V3.23061C30.7666 2.88135 31.2255 2.6291 31.8617 2.6291C32.7273 2.6291 33.3739 3.06568 33.3739 3.97764V6.73291H32.2163V4.29779C32.2163 3.7739 32.0181 3.53136 31.4341 3.53136C31.0065 3.53136 30.6414 3.7933 30.5058 4.22018V6.74261H29.3273V1.37759C29.3378 1.24176 29.4525 1.13505 29.6089 1.13505ZM38.3904 4.82176C38.3904 5.95686 39.2456 6.84941 40.6849 6.84941C42.1345 6.84941 43.0002 5.95686 42.9897 4.82176C42.9897 3.45383 42.0094 2.62919 40.6849 2.62919C39.3604 2.62919 38.3904 3.45383 38.3904 4.82176ZM39.5794 4.77326C39.5794 4.07474 40.0174 3.60906 40.6849 3.60906C41.3628 3.60906 41.7904 4.07474 41.7904 4.77326C41.7904 5.37476 41.4045 5.88895 40.6849 5.88895C39.9653 5.88895 39.5794 5.37476 39.5794 4.77326ZM13.0055 2.74553H12.9533H11.9313C11.7852 2.74553 11.6601 2.85225 11.6601 2.98807V3.59928H12.9325C13.7042 3.59928 14.0693 3.7157 14.0693 4.55975C13.8502 4.3075 13.4018 4.15227 12.776 4.15227C11.9 4.15227 11.1178 4.54034 11.1178 5.4717C11.1178 6.40306 11.7748 6.84934 12.7135 6.84934C13.3809 6.84934 13.9128 6.6359 14.184 6.31575L14.257 6.75232H15.2061V4.81199C15.2061 3.36644 14.5803 2.74553 13.0055 2.74553ZM13.1411 6.0538C12.6926 6.0538 12.2128 5.93738 12.2128 5.4814C12.2128 5.02543 12.6405 4.8896 13.1411 4.8896C13.6625 4.8896 14.111 5.06423 14.111 5.462C14.111 5.84037 13.6834 6.0538 13.1411 6.0538ZM26.3652 2.74557H26.4174C27.9818 2.74557 28.618 3.36648 28.6075 4.81203V6.75236H27.6585L27.5855 6.31578C27.3143 6.63594 26.7824 6.84938 26.1149 6.84938C25.1763 6.84938 24.5192 6.4031 24.5192 5.47174C24.5192 4.54038 25.3014 4.15231 26.1775 4.15231C26.8033 4.15231 27.2517 4.30754 27.4707 4.55978C27.4707 3.71574 27.1057 3.59932 26.3339 3.59932H25.072V2.98811C25.072 2.85229 25.1971 2.74557 25.3432 2.74557H26.3652ZM25.6247 5.48144C25.6247 5.93742 26.1045 6.05384 26.553 6.05384C27.0953 6.05384 27.5229 5.8404 27.5229 5.46204C27.5229 5.06427 27.0744 4.88964 26.553 4.88964C26.0523 4.88964 25.6247 5.02546 25.6247 5.48144ZM35.7414 2.74553H35.6892H34.6672C34.5212 2.74553 34.396 2.85225 34.396 2.98807V3.59928H35.658C36.4297 3.59928 36.7948 3.7157 36.7948 4.55975C36.5757 4.3075 36.1273 4.15227 35.5015 4.15227C34.6255 4.15227 33.8433 4.54034 33.8433 5.4717C33.8433 6.40306 34.5003 6.84934 35.4389 6.84934C36.1064 6.84934 36.6383 6.6359 36.9095 6.31575L36.9825 6.75232H37.9315V4.81199C37.9315 3.36644 37.3058 2.74553 35.7414 2.74553ZM35.877 6.0538C35.4285 6.0538 34.9488 5.93738 34.9488 5.4814C34.9488 5.02543 35.3764 4.8896 35.877 4.8896C36.3984 4.8896 36.8469 5.06423 36.8469 5.462C36.8365 5.84037 36.4193 6.0538 35.877 6.0538ZM36.9302 1.81421H35.2093C35.0529 1.81421 34.9382 1.92093 34.9382 2.05675V2.39631H36.659C36.805 2.39631 36.9302 2.28959 36.9302 2.15377V1.81421Z" fill="white"/>
</g>
<defs>
<clipPath id="clip0_143_6305">
<rect width="43" height="8" fill="white"/>
</clipPath>
</defs>
</svg>
