<svg width="130" height="92" viewBox="0 0 130 92" fill="none" xmlns="http://www.w3.org/2000/svg">
<path opacity="0.8" fill-rule="evenodd" clip-rule="evenodd" d="M46 10.9045H14C11.1858 10.9045 8.90446 13.1858 8.90446 16V71C8.90446 73.8142 11.1858 76.0955 14 76.0955H31V77H14C10.6863 77 8 74.3137 8 71V16C8 12.6863 10.6863 10 14 10H46C49.3137 10 52 12.6863 52 16V18H51.0955V16C51.0955 13.1858 48.8142 10.9045 46 10.9045Z" fill="#9C9C9C" fill-opacity="0.37"/>
<rect opacity="0.7" x="31.4522" y="18.4522" width="90.0955" height="66.0955" rx="5.54777" stroke="#B7B7B7" stroke-opacity="0.47" stroke-width="0.904459"/>
<g opacity="0.6">
<path d="M76.7273 30.0373C76.8591 29.681 77.3631 29.681 77.4949 30.0373L78.4263 32.5542C78.4677 32.6662 78.556 32.7545 78.6681 32.796L81.1849 33.7273C81.5412 33.8591 81.5412 34.3631 81.1849 34.4949L78.6681 35.4263C78.556 35.4677 78.4677 35.556 78.4263 35.6681L77.4949 38.1849C77.3631 38.5412 76.8591 38.5412 76.7273 38.1849L75.796 35.6681C75.7545 35.556 75.6662 35.4677 75.5542 35.4263L73.0373 34.4949C72.681 34.3631 72.681 33.8591 73.0373 33.7273L75.5542 32.796C75.6662 32.7545 75.7545 32.6662 75.796 32.5542L76.7273 30.0373Z" fill="#D9D9D9"/>
<path d="M67.2828 35.1484C67.4147 34.7921 67.9187 34.7921 68.0505 35.1484L69.6721 39.5306C69.7135 39.6426 69.8018 39.7309 69.9139 39.7724L74.296 41.3939C74.6524 41.5258 74.6524 42.0297 74.296 42.1616L69.9139 43.7831C69.8018 43.8246 69.7135 43.9129 69.6721 44.0249L68.0505 48.4071C67.9187 48.7634 67.4147 48.7634 67.2828 48.4071L65.6613 44.0249C65.6198 43.9129 65.5315 43.8246 65.4195 43.7831L61.0373 42.1616C60.681 42.0297 60.681 41.5258 61.0373 41.3939L65.4195 39.7724C65.5315 39.7309 65.6198 39.6426 65.6613 39.5306L67.2828 35.1484Z" fill="#D9D9D9"/>
<path d="M78.9128 40.8151C79.0447 40.4588 79.5486 40.4588 79.6805 40.8151L80.6118 43.332C80.6533 43.444 80.7416 43.5323 80.8536 43.5738L83.3705 44.5051C83.7268 44.637 83.7268 45.1409 83.3705 45.2728L80.8536 46.2041C80.7416 46.2456 80.6533 46.3339 80.6118 46.4459L79.6805 48.9628C79.5486 49.3191 79.0447 49.3191 78.9128 48.9628L77.9815 46.4459C77.94 46.3339 77.8517 46.2456 77.7397 46.2041L75.2228 45.2728C74.8665 45.1409 74.8665 44.637 75.2228 44.5051L77.7397 43.5738C77.8517 43.5323 77.94 43.444 77.9815 43.332L78.9128 40.8151Z" fill="#D9D9D9"/>
</g>
<line x1="32" y1="61.5" x2="121" y2="61.5" stroke="#B7B7B7" stroke-opacity="0.24"/>
<path d="M85 70H41" stroke="#9C9C9C" stroke-opacity="0.13" stroke-width="3.25" stroke-linecap="round"/>
<path d="M77 76H41" stroke="#9C9C9C" stroke-opacity="0.13" stroke-width="3.25" stroke-linecap="round"/>
<path d="M30.5 68H31H15" stroke="#9C9C9C" stroke-opacity="0.13" stroke-width="3.25" stroke-linecap="round"/>
<path d="M30 60H15" stroke="#9C9C9C" stroke-opacity="0.13" stroke-width="3.25" stroke-linecap="round"/>
<path fill-rule="evenodd" clip-rule="evenodd" d="M32 52.5C32 53.3975 31.8975 53.625 31 53.625L15 53.625C14.1025 53.625 13.375 52.8975 13.375 52C13.375 51.1025 14.1025 50.375 15 50.375L31 50.375C31.8975 50.375 32 51.6025 32 52.5Z" fill="#9C9C9C" fill-opacity="0.13"/>
<path fill-rule="evenodd" clip-rule="evenodd" d="M31.5 44C31.5 44.8975 31.8977 45.625 31.0002 45.625L15.0002 45.625C14.1027 45.625 13.3752 44.8975 13.3752 44C13.3752 43.1025 14.1027 42.375 15.0002 42.375L31.0002 42.375C31.8977 42.375 31.5 43.1025 31.5 44Z" fill="#9C9C9C" fill-opacity="0.13"/>
<path fill-rule="evenodd" clip-rule="evenodd" d="M31.5 36C31.5 36.8975 31.8977 37.625 31.0002 37.625L15.0002 37.625C14.1027 37.625 13.3752 36.8975 13.3752 36C13.3752 35.1025 14.1027 34.375 15.0002 34.375L31.0002 34.375C31.8977 34.375 31.5 35.1025 31.5 36Z" fill="#9C9C9C" fill-opacity="0.13"/>
<path fill-rule="evenodd" clip-rule="evenodd" d="M31.5 28C31.5 28.8975 31.8977 29.625 31.0002 29.625L15.0002 29.625C14.1027 29.625 13.3752 28.8975 13.3752 28C13.3752 27.1025 14.1027 26.375 15.0002 26.375L31.0002 26.375C31.8977 26.375 31.5 27.1025 31.5 28Z" fill="#9C9C9C" fill-opacity="0.13"/>
<path d="M28 20H15" stroke="#9C9C9C" stroke-opacity="0.13" stroke-width="3.25" stroke-linecap="round"/>
<circle cx="107.022" cy="73.0218" r="3.41463" fill="#B7B7B7" fill-opacity="0.24"/>
<circle cx="107.022" cy="73.0218" r="3.72713" stroke="#B7B7B7" stroke-opacity="0.24" stroke-width="0.625"/>
<circle cx="107" cy="73" r="5.5625" stroke="#B7B7B7" stroke-opacity="0.66" stroke-width="1.125"/>
</svg>
