<svg width="88" height="158" viewBox="0 0 88 158" fill="none" xmlns="http://www.w3.org/2000/svg">
<g clip-path="url(#clip0_145_6470)">
<path fill-rule="evenodd" clip-rule="evenodd" d="M196.881 136.705C196.877 136.852 196.873 137 196.867 137.146C196.869 137.156 196.869 137.164 196.867 137.172C196.861 137.329 196.853 137.482 196.843 137.637C196.835 137.795 196.823 137.951 196.811 138.107C196.801 138.264 196.787 138.422 196.771 138.578C196.755 138.727 196.739 138.874 196.721 139.023C196.721 139.035 196.721 139.049 196.717 139.061C196.707 139.161 196.693 139.261 196.679 139.361C196.663 139.496 196.645 139.628 196.625 139.76L196.607 139.874C196.579 140.06 196.548 140.247 196.515 140.431V140.435C196.481 140.629 196.443 140.824 196.402 141.016C196.364 141.21 196.322 141.402 196.276 141.595C196.19 141.979 196.092 142.36 195.984 142.738C195.878 143.115 195.763 143.487 195.635 143.858C195.451 144.409 195.245 144.953 195.014 145.49C194.942 145.668 194.864 145.845 194.782 146.021C194.552 146.534 194.301 147.038 194.033 147.533C194.013 147.571 193.993 147.607 193.971 147.643C193.895 147.786 193.817 147.926 193.737 148.064C193.731 148.072 193.726 148.08 193.721 148.088C193.641 148.232 193.557 148.374 193.468 148.517C193.332 148.745 193.19 148.969 193.044 149.191C192.969 149.308 192.893 149.424 192.815 149.538C192.709 149.697 192.601 149.853 192.489 150.009C192.433 150.089 192.377 150.169 192.319 150.247C192.319 150.251 192.314 150.257 192.314 150.257C192.306 150.265 192.298 150.275 192.291 150.283C190.848 152.254 189.11 153.995 187.141 155.439C187.105 155.471 187.069 155.505 187.033 155.539L187.011 155.555L186.867 155.657C182.813 158.557 178.029 160.089 173.01 160.089C169.827 160.089 166.739 159.471 163.835 158.253L161.992 157.504C157.215 155.643 143.726 150.087 127.223 140.749C149.39 120.904 159.847 112.466 173.341 112.336C177.333 112.39 181.096 113.437 184.393 115.244C184.405 115.25 184.415 115.256 184.425 115.262C184.559 115.334 184.694 115.408 184.826 115.484C184.938 115.546 185.048 115.611 185.156 115.679C192.166 119.855 196.885 127.52 196.885 136.215C196.885 136.357 196.883 136.499 196.881 136.641C196.883 136.663 196.883 136.685 196.881 136.705M115.704 183.595C98.2391 183.595 81.298 179.282 66.2141 171.179C79.3675 170.492 98.986 166.107 117.898 149.126L118.582 148.511C137.913 159.784 153.77 166.169 158.633 168.022C158.645 168.026 158.659 168.032 158.675 168.038L159.671 168.523H159.821C161.972 169.404 164.189 170.065 166.459 170.492C151.066 179.04 133.663 183.595 115.704 183.595M57.4721 160.093V160.073C57.2238 160.063 56.9755 160.047 56.7291 160.027H56.7229C55.5834 159.913 54.6803 159.785 54.0455 159.68C53.9373 159.666 53.8288 159.65 53.7206 159.628C53.5707 159.604 53.4423 159.578 53.34 159.556C53.3182 159.552 53.2921 159.546 53.2722 159.542C50.1057 158.839 47.1692 157.535 44.5393 155.653L44.4152 155.558C42.5743 153.852 40.7781 152.061 39.0754 150.221L38.9734 150.08C38.8951 149.972 38.8189 149.864 38.7469 149.75L38.787 149.71C38.6889 149.606 38.5966 149.498 38.4985 149.395V149.389C38.4924 149.385 38.4884 149.38 38.4884 149.373C38.4826 149.369 38.4826 149.369 38.4783 149.363C35.8925 145.463 34.5267 140.951 34.5267 136.214C34.5267 135.932 34.5307 135.641 34.547 135.343V135.307C36.059 118.143 41.567 102.695 49.3206 89.0032C60.9633 104.876 76.434 119.82 95.3134 133.43C99.8382 136.689 104.337 139.717 108.727 142.507C87.7925 160.273 66.5097 160.846 57.4721 160.093M24.0701 129.347C16.2044 115.152 11.7324 99.2469 11.0973 82.7767C11.0813 82.2459 11.0611 81.7131 11.0513 81.1763C11.0292 80.3571 11.0191 79.532 11.0191 78.7068C11.0191 78.3601 11.0191 78.0156 11.0252 77.6692C11.0292 77.1905 11.035 76.7157 11.0513 76.235C11.0513 76.121 11.0552 76.0089 11.0611 75.9007C11.0611 75.8225 11.0653 75.7404 11.0653 75.6625C11.5822 58.9019 16.0744 42.7002 24.0701 28.2671C26.2933 45.8205 32.3963 62.7616 42.2548 78.8088C32.3924 94.8583 26.2933 111.793 24.0701 129.347M38.4985 8.22026C38.5966 8.11826 38.6889 8.00974 38.787 7.90579L38.7469 7.8657C38.8189 7.75165 38.8951 7.64345 38.9734 7.53526L39.0754 7.39514C40.7738 5.55849 42.5684 3.76974 44.4054 2.06736L44.5393 1.96308C47.1692 0.0863438 50.1057 -1.22369 53.2722 -1.9266C53.2781 -1.93051 53.2882 -1.93051 53.2921 -1.93051C53.3442 -1.93671 53.3961 -1.94681 53.4524 -1.95691L53.5463 -1.97679L53.6124 -1.98885C53.6946 -2.00286 53.7767 -2.01883 53.8611 -2.0348C53.9171 -2.0449 53.9791 -2.05467 54.0413 -2.06478C54.1172 -2.08074 54.2013 -2.09085 54.2838 -2.10681C54.8664 -2.19904 55.6254 -2.30299 56.5528 -2.39522C56.5727 -2.39522 56.5988 -2.40141 56.6209 -2.40141C56.6513 -2.40532 56.6933 -2.40532 56.7291 -2.41151C56.9755 -2.43139 57.2238 -2.44149 57.4721 -2.45159V-2.47734C66.5097 -3.23044 87.7925 -2.65755 108.727 15.1083C104.337 17.8985 99.8382 20.9269 95.3134 24.1857C76.434 37.7953 60.9633 52.7394 49.3206 68.6103C41.567 54.9303 36.0629 39.4918 34.5528 22.3389C34.547 22.319 34.547 22.293 34.547 22.2728C34.5307 21.9723 34.5267 21.6839 34.5267 21.4056C34.5267 16.6546 35.8987 12.1301 38.4985 8.22026M115.704 -25.9793C133.663 -25.9793 151.062 -21.4248 166.455 -12.8764C164.185 -12.4498 161.972 -11.7886 159.821 -10.9074H159.671L158.675 -10.4225C158.665 -10.4167 158.655 -10.4108 158.649 -10.4108C153.8 -8.56014 137.933 -2.1788 118.579 9.10798L117.898 8.49501C98.986 -8.49203 79.3675 -12.8764 66.2141 -13.5633C81.298 -21.667 98.2391 -25.9793 115.704 -25.9793M173.01 -2.47396C178.029 -2.47396 182.813 -0.941679 186.867 1.96255L187.027 2.0766L187.037 2.08671C187.125 2.16883 187.213 2.24899 187.299 2.33307C189.152 3.71707 190.796 5.36341 192.178 7.21831C192.178 7.22026 192.178 7.22026 192.18 7.22026C192.226 7.27012 192.272 7.31835 192.319 7.36854C192.325 7.3744 192.331 7.3845 192.334 7.39037C194.838 10.8375 196.344 14.7973 196.763 18.9835C196.783 19.1917 196.801 19.4 196.817 19.6082C196.831 19.7424 196.837 19.8806 196.843 20.0149C196.847 20.0328 196.847 20.0511 196.847 20.0709C196.853 20.1472 196.857 20.2274 196.861 20.3033C196.873 20.5597 196.881 20.8162 196.883 21.0766C196.885 21.1085 196.885 21.1405 196.883 21.1727C196.885 21.1766 196.885 21.1805 196.883 21.1867C196.885 21.2288 196.887 21.2708 196.885 21.3148V21.4051C196.885 33.3664 187.95 43.379 176.401 45.0417C176.205 45.0697 176.009 45.0958 175.812 45.1176C175.806 45.1195 175.8 45.1215 175.794 45.1195C175.724 45.1296 175.654 45.1378 175.584 45.1437C175.58 45.1456 175.576 45.1456 175.574 45.1456C175.526 45.1495 175.478 45.1557 175.428 45.1616C175.396 45.1639 175.366 45.1678 175.336 45.1697C175.185 45.1837 175.037 45.1978 174.887 45.2079C174.685 45.2238 174.483 45.2359 174.278 45.2479C173.992 45.2639 173.703 45.276 173.413 45.2799H173.341C173.291 45.2799 173.236 45.2779 173.187 45.276C173.182 45.2779 173.179 45.2779 173.174 45.276C173.171 45.2779 173.167 45.2779 173.162 45.276H173.16C171.775 45.2558 170.42 45.1476 169.08 44.9455C169.063 44.9455 169.047 44.9432 169.028 44.9374C168.962 44.9292 168.898 44.9172 168.834 44.9054C157.317 43.0848 146.87 34.4539 127.223 16.8662C143.742 7.52463 157.247 1.96255 162.008 0.111885L163.835 -0.637309C166.739 -1.85511 169.827 -2.47396 173.01 -2.47396M173.76 101.326L173.42 101.316H173.011C171.258 101.316 169.474 101.451 167.713 101.713V101.719C152.449 103.834 140.029 114.446 117.29 134.863C112.224 131.727 106.998 128.264 101.757 124.488C86.286 113.336 68.9486 98.0715 55.7072 78.8092C68.9486 59.5472 86.286 44.2789 101.757 33.1267C106.998 29.3448 112.218 25.8879 117.283 22.7572C140.029 43.1692 152.449 53.7808 167.713 55.8957V55.9C169.474 56.1643 171.258 56.2985 173.011 56.2985H173.481L173.76 56.2884C192.655 55.8596 207.904 40.307 207.904 21.4055C207.904 13.8383 205.521 6.63799 201.002 0.575032C200.667 0.126298 200.321 -0.316245 199.964 -0.750966C199.964 -0.755203 199.96 -0.761068 199.95 -0.764979C199.944 -0.771171 199.938 -0.781272 199.934 -0.787138C198.37 -2.43152 196.766 -4.03191 195.115 -5.5883C195.111 -5.5883 195.105 -5.59416 195.101 -5.59807C195.101 -5.59807 195.043 -5.65021 194.951 -5.73853C194.853 -5.82651 194.719 -5.95068 194.564 -6.09895C194.456 -6.19704 194.342 -6.30132 194.224 -6.41342C193.739 -6.85792 193.166 -7.37867 192.82 -7.68923C192.355 -8.1018 191.892 -8.50849 191.422 -8.91095C191.215 -9.09116 191.009 -9.26746 190.799 -9.4418C190.36 -9.81852 189.922 -10.191 189.477 -10.5573C189.014 -10.9379 188.544 -11.3205 188.069 -11.6972C187.29 -12.32 186.501 -12.9349 185.707 -13.5335C185.341 -13.8161 184.968 -14.0947 184.592 -14.3688C184.015 -14.7976 183.432 -15.2203 182.843 -15.6367C182.535 -15.8593 182.221 -16.0816 181.9 -16.2976C181.455 -16.6121 181.007 -16.9168 180.558 -17.2212C180.011 -17.5936 179.454 -17.9583 178.897 -18.3207C178.289 -18.7235 177.67 -19.1139 177.051 -19.5004H177.045C176.514 -19.837 175.977 -20.1616 175.44 -20.4858C175.184 -20.6422 174.92 -20.7964 174.663 -20.9505C174.199 -21.2249 173.734 -21.4934 173.269 -21.7616C172.765 -22.05 172.264 -22.3326 171.753 -22.6109C171.527 -22.7412 171.298 -22.8654 171.072 -22.9876C171.052 -22.9996 171.03 -23.0097 171.01 -23.0195C170.489 -23.304 169.969 -23.5823 169.442 -23.8609C169.402 -23.8808 169.354 -23.901 169.314 -23.9268C168.688 -24.2513 168.06 -24.5717 167.431 -24.8865C166.806 -25.1967 166.181 -25.5014 165.552 -25.7999C165.486 -25.8318 165.418 -25.8677 165.352 -25.8918C164.727 -26.1923 164.098 -26.4865 163.469 -26.7691C163.122 -26.9255 162.772 -27.0796 162.422 -27.2338C162.081 -27.384 161.74 -27.5323 161.4 -27.6786C161.059 -27.8226 160.719 -27.9667 160.378 -28.111C159.682 -28.3994 158.98 -28.6878 158.273 -28.9661C157.599 -29.2307 156.917 -29.4931 156.236 -29.7453C155.89 -29.8757 155.54 -30.0037 155.189 -30.1279C154.838 -30.2563 154.488 -30.3804 154.137 -30.5046C153.434 -30.7529 152.729 -30.9892 152.022 -31.2215C151.666 -31.3398 151.309 -31.4539 150.955 -31.566C150.598 -31.68 150.242 -31.7944 149.885 -31.9026C146.584 -32.9181 143.221 -33.7914 139.8 -34.5083C139.145 -34.6465 138.49 -34.7808 137.831 -34.9049C137.088 -35.0493 136.34 -35.1832 135.586 -35.3116C135.242 -35.3735 134.895 -35.4319 134.545 -35.4879C133.765 -35.616 132.982 -35.7343 132.197 -35.8444C131.064 -36.0025 129.918 -36.1488 128.772 -36.2769C128.304 -36.329 127.833 -36.3792 127.364 -36.4271C127.322 -36.4271 127.286 -36.4313 127.246 -36.4372C126.657 -36.4933 126.068 -36.5493 125.481 -36.6015C125.466 -36.5975 125.449 -36.6015 125.435 -36.6015C124.899 -36.6477 124.368 -36.6836 123.831 -36.7197C123.773 -36.7256 123.711 -36.7315 123.655 -36.7357C123.226 -36.7618 122.8 -36.7879 122.371 -36.8136C121.948 -36.8397 121.524 -36.8599 121.101 -36.8801H121.065C120.636 -36.9019 120.21 -36.9159 119.775 -36.9319C119.332 -36.942 118.884 -36.958 118.439 -36.9681C118.063 -36.9778 117.686 -36.984 117.306 -36.9879C116.851 -36.9941 116.392 -37 115.934 -37H115.705C115.253 -37 114.792 -36.9941 114.339 -36.9879C114.013 -36.984 113.694 -36.9778 113.37 -36.9743H113.276C112.919 -36.9681 112.559 -36.958 112.202 -36.942C111.816 -36.9319 111.425 -36.9159 111.036 -36.9019C110.65 -36.8859 110.263 -36.87 109.882 -36.8498H109.831L109.52 -36.8338C109.506 -36.8338 109.494 -36.8338 109.484 -36.8299C109.062 -36.8077 108.639 -36.7817 108.216 -36.7517C107.814 -36.7256 107.415 -36.6995 107.018 -36.6735C106.828 -36.6595 106.638 -36.6477 106.452 -36.6275C105.62 -36.5656 104.791 -36.4933 103.964 -36.401C103.479 -36.3551 102.995 -36.2971 102.51 -36.2449C102.025 -36.1948 101.541 -36.1328 101.056 -36.0706C100.683 -36.0246 100.313 -35.9725 99.9461 -35.9266C99.6519 -35.8865 99.3592 -35.8382 99.065 -35.7962C98.9489 -35.7802 98.8346 -35.7623 98.7182 -35.7463C98.4018 -35.6981 98.0854 -35.6561 97.7686 -35.6059C97.4245 -35.5541 97.0778 -35.4977 96.7372 -35.4358C75.268 -31.9026 55.2067 -22.3586 38.7606 -7.69933C38.2138 -7.21443 37.677 -6.72366 37.1419 -6.22897L36.9601 -6.05887C34.8507 -4.10816 32.7977 -2.05089 30.847 0.0601436L30.771 0.1364C30.2803 0.66921 29.7895 1.20593 29.3108 1.74656C15.5988 17.113 6.37124 35.648 2.33752 55.5291C2.26518 55.8899 2.19316 56.2565 2.12114 56.6228C2.01099 57.1797 1.9028 57.7425 1.81025 58.3095C1.77441 58.4796 1.74834 58.6497 1.71835 58.8199C1.62418 59.3269 1.54205 59.8255 1.45993 60.3322C1.36184 60.9312 1.27386 61.5341 1.18554 62.137C1.13536 62.5094 1.08354 62.88 1.0314 63.2524C0.995231 63.519 0.959385 63.7934 0.929078 64.0616C0.913436 64.1639 0.897468 64.2682 0.88704 64.3702C0.841091 64.7528 0.795142 65.1292 0.752778 65.5121C0.726708 65.7122 0.707155 65.9184 0.686951 66.1208C0.650778 66.403 0.618842 66.6878 0.592772 66.9701C0.540632 67.4566 0.494357 67.9415 0.45851 68.43C0.438632 68.6425 0.422664 68.8589 0.402459 69.071C0.386491 69.2812 0.370523 69.4995 0.350319 69.71C0.340543 69.7821 0.334351 69.8502 0.334351 69.9222C0.330114 69.9323 0.330114 69.9483 0.330114 69.9584V70.0082C0.294268 70.4791 0.262006 70.9438 0.232351 71.4124C0.212147 71.7328 0.190313 72.0472 0.1763 72.3679C0.170108 72.4859 0.160006 72.6042 0.15414 72.7225C0.15414 72.7746 0.15023 72.8205 0.15023 72.8727C0.139802 73.047 0.12807 73.2233 0.12416 73.3993C0.117968 73.4355 0.117968 73.4655 0.117968 73.5016C0.0980893 73.8682 0.0879871 74.2384 0.072019 74.6051C0.056051 75.0078 0.0459488 75.4165 0.0358466 75.8229C0.0358466 75.8691 0.0299808 75.921 0.0299808 75.9731C0.0260702 76.0914 0.0260702 76.2094 0.0260702 76.3338C0.015968 76.602 0.015968 76.8706 0.015968 77.1388C0.00977634 77.273 0.00977634 77.4073 0.00977634 77.5415C0 77.928 0 78.3145 0 78.7072C0 79.166 0.0058658 79.6206 0.00977634 80.0733C0.00977634 80.2235 0.00977634 80.3737 0.015968 80.5178C0.015968 80.6299 0.015968 80.7404 0.0198786 80.8482V80.8684C0.0198786 81.0024 0.0198786 81.1268 0.0260702 81.2549C0.0299808 81.4192 0.0299808 81.5854 0.0358466 81.7496C0.0358466 81.7757 0.0358466 81.8076 0.0420383 81.8317C0.0420383 81.9419 0.0459488 82.0442 0.0521405 82.1524C0.0521405 82.2244 0.056051 82.3026 0.056051 82.3746C0.056051 82.4004 0.056051 82.4206 0.0619168 82.4467C0.0619168 82.565 0.0661532 82.6891 0.072019 82.8071C0.0778848 83.0355 0.0821213 83.2617 0.0918976 83.4882C0.114057 83.9007 0.12807 84.3133 0.15023 84.7262V84.7679C0.15414 84.7881 0.15414 84.8142 0.15414 84.834C0.200089 85.7475 0.258421 86.6567 0.324574 87.5642C0.334351 87.6783 0.346408 87.7865 0.350319 87.8947C0.376389 88.1932 0.402459 88.4875 0.422664 88.786C0.438632 88.9202 0.448734 89.0542 0.45851 89.1884C0.474804 89.3647 0.494357 89.5348 0.510651 89.7095V89.7154C0.540632 90.0295 0.572894 90.3443 0.60874 90.6588C0.639047 90.9589 0.664791 91.2577 0.696727 91.552C0.845328 92.9142 1.02163 94.2698 1.21194 95.616C1.21781 95.662 1.22758 95.7102 1.23377 95.7562C1.23768 95.8021 1.24779 95.8481 1.25365 95.8943C1.45407 97.2402 1.68251 98.5783 1.92464 99.9082V99.9183C1.94484 100.032 1.97091 100.144 1.99079 100.259C2.10876 100.894 2.23292 101.528 2.36359 102.157C2.49134 102.792 2.6256 103.421 2.76377 104.05C2.76996 104.076 2.77583 104.096 2.78007 104.122C2.914 104.727 3.05445 105.324 3.19849 105.923C3.22456 106.051 3.25454 106.181 3.29072 106.305C3.44486 106.95 3.60519 107.593 3.77562 108.234C3.94182 108.879 4.11617 109.518 4.29605 110.157C4.41043 110.56 4.52482 110.962 4.64278 111.361C4.74087 111.711 4.84906 112.056 4.95106 112.406C5.10749 112.923 5.26782 113.44 5.42587 113.949C5.53406 114.295 5.64812 114.636 5.76217 114.976C5.83452 115.208 5.9124 115.441 5.98866 115.673C5.99453 115.699 6.00495 115.723 6.01473 115.746C6.06068 115.883 6.10695 116.024 6.15877 116.158C6.47324 117.097 6.80401 118.031 7.15042 118.954C7.3404 119.469 7.53104 119.986 7.73308 120.496C7.74351 120.532 7.75916 120.562 7.76926 120.594C7.96544 121.105 8.16585 121.616 8.37213 122.121C8.5846 122.647 8.80099 123.168 9.01704 123.689C9.23929 124.21 9.45959 124.726 9.68803 125.247C10.0846 126.154 10.4933 127.058 10.9097 127.949C11.0802 128.306 11.2503 128.662 11.4207 129.017C11.673 129.549 11.9314 130.074 12.1937 130.597C12.5603 131.328 12.9367 132.055 13.3134 132.778C13.9642 134.016 14.6394 135.244 15.3423 136.456C16.0475 137.693 16.7804 138.917 17.5335 140.125C17.848 140.636 18.1723 141.144 18.503 141.651C18.9156 142.29 19.3343 142.925 19.7625 143.56C20.1292 144.107 20.5 144.648 20.8764 145.184C20.8924 145.21 20.9126 145.236 20.9282 145.263C21.273 145.751 21.6233 146.242 21.9759 146.727L22.8414 147.903C22.8515 147.918 22.8675 147.938 22.8835 147.954C23.1878 148.367 23.4961 148.78 23.8067 149.188C23.8689 149.264 23.925 149.336 23.981 149.415C24.039 149.493 24.1013 149.565 24.1632 149.641C24.3695 149.915 24.58 150.184 24.7921 150.456C25.1229 150.879 25.4573 151.303 25.7978 151.72C26.2364 152.263 26.679 152.799 27.1297 153.334C27.5924 153.887 28.0568 154.434 28.5319 154.975C28.7842 155.275 29.0481 155.574 29.3108 155.868C29.317 155.878 29.3267 155.884 29.3368 155.894C29.605 156.193 29.8775 156.497 30.1519 156.797C30.2503 156.909 30.3523 157.024 30.4605 157.136C30.5908 157.276 30.7186 157.417 30.847 157.554C31.43 158.183 32.0247 158.815 32.6217 159.433C32.974 159.794 33.3249 160.154 33.685 160.511C33.7834 160.613 33.8916 160.717 33.9936 160.826C34.4541 161.284 34.9169 161.739 35.3877 162.191C35.9085 162.692 36.4351 163.189 36.9601 163.677L37.1419 163.844C37.677 164.338 38.2199 164.833 38.7668 165.314C51.3551 176.542 66.0685 184.752 81.9039 189.573C82.044 189.615 82.1861 189.66 82.3285 189.702C83.1536 189.95 83.9807 190.19 84.812 190.42C85.1343 190.508 85.4569 190.593 85.7792 190.679C86.4825 190.865 87.1834 191.053 87.8883 191.228C88.9403 191.488 89.9955 191.737 91.0591 191.967C91.5277 192.071 91.9967 192.169 92.4672 192.267C92.9358 192.365 93.4103 192.458 93.8851 192.546C93.9151 192.556 93.9474 192.56 93.9774 192.566C94.2296 192.612 94.4841 192.658 94.7366 192.704C95.1593 192.782 95.5816 192.86 96.0105 192.932C96.0405 192.942 96.0724 192.948 96.1024 192.952L96.5994 193.03C97.124 193.118 97.6448 193.201 98.1717 193.283C98.5801 193.345 98.9926 193.407 99.3993 193.463C99.4312 193.473 99.4616 193.479 99.4915 193.479C99.5332 193.483 99.5697 193.489 99.6118 193.495C100.09 193.561 100.575 193.629 101.056 193.689C101.541 193.752 102.025 193.81 102.51 193.866C102.995 193.917 103.479 193.974 103.964 194.02C104.455 194.072 104.939 194.118 105.43 194.16C105.869 194.2 106.308 194.236 106.746 194.268C106.838 194.284 106.93 194.288 107.025 194.294C107.948 194.36 108.875 194.418 109.809 194.469C109.831 194.469 109.856 194.474 109.882 194.469C110.263 194.491 110.65 194.505 111.036 194.521C111.579 194.541 112.126 194.563 112.673 194.577C113.22 194.593 113.766 194.603 114.313 194.609C114.778 194.613 115.241 194.619 115.705 194.619C116.164 194.619 116.618 194.613 117.073 194.609C117.532 194.603 117.986 194.599 118.439 194.588C119.084 194.573 119.729 194.553 120.37 194.527C121.013 194.5 121.658 194.469 122.299 194.432C122.793 194.406 123.284 194.376 123.779 194.34C126.26 194.176 128.716 193.928 131.15 193.607C131.919 193.505 132.682 193.397 133.445 193.283C133.487 193.273 133.533 193.267 133.575 193.263C134.354 193.139 135.134 193.014 135.911 192.876C136.371 192.792 136.834 192.71 137.299 192.628C138.058 192.484 138.811 192.333 139.564 192.179C140.353 192.009 141.142 191.839 141.925 191.658C142.717 191.478 143.494 191.286 144.273 191.089C144.613 191.007 144.954 190.919 145.294 190.827C146.895 190.408 148.483 189.956 150.055 189.471C150.402 189.363 150.749 189.255 151.093 189.145C151.888 188.888 152.677 188.63 153.466 188.356C153.843 188.227 154.219 188.099 154.596 187.965C154.967 187.831 155.343 187.697 155.716 187.556C156.459 187.284 157.2 187.006 157.939 186.715C158.31 186.571 158.676 186.427 159.042 186.277C159.409 186.132 159.776 185.978 160.142 185.828C160.507 185.68 160.873 185.523 161.236 185.369C161.612 185.209 161.993 185.045 162.369 184.879C163.047 184.58 163.716 184.282 164.383 183.971C165.13 183.627 165.873 183.27 166.609 182.91C166.966 182.74 167.317 182.563 167.667 182.389C168.024 182.206 168.374 182.032 168.721 181.852C169.324 181.542 169.926 181.227 170.52 180.903C171.397 180.432 172.264 179.953 173.125 179.462C173.378 179.318 173.63 179.174 173.884 179.024C175.24 178.241 176.576 177.425 177.896 176.584C178.227 176.378 178.557 176.166 178.882 175.95C180.616 174.826 182.319 173.654 183.979 172.436C184.293 172.21 184.608 171.978 184.922 171.745C185.151 171.571 185.381 171.401 185.609 171.23C185.918 170.998 186.222 170.766 186.523 170.528C187.152 170.043 187.78 169.548 188.4 169.053C188.936 168.615 189.473 168.176 190.004 167.733C190.39 167.407 190.777 167.082 191.159 166.758C191.422 166.53 191.686 166.303 191.943 166.077C192.237 165.819 192.531 165.56 192.82 165.304C193.166 164.993 193.517 164.683 193.864 164.365C194.208 164.054 194.549 163.736 194.889 163.415C194.955 163.347 195.029 163.287 195.101 163.213C195.121 163.199 195.141 163.177 195.163 163.163C196.896 161.749 198.48 160.17 199.892 158.448C199.914 158.426 199.928 158.4 199.95 158.38C200.315 157.941 200.667 157.492 201.002 157.04C205.521 150.977 207.904 143.776 207.904 136.213C207.904 117.314 192.655 101.755 173.76 101.326" fill="#1CD8C7"/>
</g>
<defs>
<clipPath id="clip0_145_6470">
<rect width="88" height="158" fill="white"/>
</clipPath>
</defs>
</svg>
