<svg width="110" height="158" viewBox="0 0 110 158" fill="none" xmlns="http://www.w3.org/2000/svg">
<g clip-path="url(#clip0_145_6470)">
<path fill-rule="evenodd" clip-rule="evenodd" d="M197.664 136.839C197.66 136.985 197.657 137.133 197.65 137.28C197.652 137.29 197.652 137.297 197.65 137.306C197.644 137.462 197.636 137.616 197.627 137.77C197.618 137.928 197.606 138.085 197.594 138.241C197.584 138.397 197.57 138.555 197.554 138.712C197.538 138.86 197.522 139.008 197.504 139.156C197.504 139.168 197.504 139.182 197.5 139.194C197.49 139.294 197.476 139.395 197.462 139.495C197.446 139.629 197.428 139.761 197.408 139.893L197.39 140.007C197.362 140.194 197.332 140.38 197.298 140.564V140.568C197.264 140.763 197.226 140.957 197.186 141.149C197.148 141.344 197.105 141.536 197.06 141.728C196.973 142.113 196.875 142.493 196.767 142.872C196.661 143.248 196.547 143.621 196.419 143.991C196.234 144.542 196.028 145.087 195.797 145.624C195.726 145.802 195.647 145.978 195.565 146.155C195.335 146.667 195.085 147.172 194.816 147.667C194.796 147.705 194.776 147.741 194.754 147.777C194.678 147.919 194.6 148.059 194.52 148.197C194.514 148.206 194.51 148.213 194.504 148.222C194.424 148.366 194.34 148.508 194.251 148.65C194.115 148.879 193.973 149.103 193.827 149.325C193.753 149.441 193.677 149.557 193.598 149.672C193.492 149.83 193.384 149.986 193.272 150.142C193.216 150.222 193.16 150.303 193.102 150.381C193.102 150.385 193.097 150.391 193.097 150.391C193.09 150.399 193.082 150.409 193.074 150.417C191.631 152.388 189.893 154.128 187.924 155.572C187.888 155.604 187.852 155.638 187.816 155.672L187.794 155.688L187.65 155.791C183.596 158.691 178.813 160.223 173.793 160.223C170.611 160.223 167.522 159.604 164.618 158.386L162.776 157.637C157.998 155.777 144.509 150.22 128.007 140.883C150.173 121.038 160.63 112.6 174.124 112.469C178.116 112.523 181.879 113.571 185.176 115.378C185.188 115.383 185.198 115.39 185.208 115.396C185.342 115.468 185.477 115.542 185.609 115.618C185.721 115.68 185.831 115.744 185.939 115.812C192.95 119.988 197.669 127.653 197.669 136.348C197.669 136.49 197.666 136.633 197.664 136.775C197.666 136.797 197.666 136.819 197.664 136.839M116.487 183.728C99.0223 183.728 82.0812 179.416 66.9973 171.312C80.1507 170.625 99.7692 166.241 118.681 149.26L119.366 148.645C138.696 159.917 154.553 166.303 159.416 168.156C159.428 168.16 159.442 168.165 159.459 168.172L160.454 168.656H160.604C162.755 169.538 164.972 170.199 167.242 170.625C151.849 179.174 134.446 183.728 116.487 183.728M58.2553 160.227V160.206C58.007 160.197 57.7587 160.18 57.5123 160.161H57.5062C56.3666 160.046 55.4635 159.918 54.8287 159.814C54.7205 159.8 54.612 159.784 54.5038 159.762C54.3539 159.738 54.2255 159.712 54.1232 159.69C54.1014 159.686 54.0753 159.68 54.0554 159.676C50.8889 158.973 47.9524 157.669 45.3226 155.786L45.1984 155.692C43.3575 153.985 41.5613 152.195 39.8586 150.354L39.7566 150.214C39.6783 150.106 39.6021 149.998 39.5301 149.883L39.5702 149.844C39.4721 149.739 39.3798 149.631 39.2818 149.529V149.523C39.2756 149.519 39.2717 149.513 39.2717 149.507C39.2658 149.503 39.2658 149.503 39.2615 149.497C36.6757 145.597 35.31 141.085 35.31 136.348C35.31 136.065 35.3139 135.775 35.3302 135.476V135.44C36.8422 118.277 42.3502 102.828 50.1038 89.1367C61.7465 105.01 77.2172 119.954 96.0966 133.564C100.621 136.822 105.12 139.851 109.51 142.641C88.5757 160.407 67.2929 160.98 58.2553 160.227M24.8533 129.48C16.9876 115.286 12.5156 99.3805 11.8805 82.9103C11.8645 82.3794 11.8443 81.8466 11.8345 81.3099C11.8124 80.4906 11.8023 79.6655 11.8023 78.8404C11.8023 78.4936 11.8023 78.1492 11.8084 77.8028C11.8124 77.3241 11.8182 76.8493 11.8345 76.3686C11.8345 76.2545 11.8384 76.1424 11.8443 76.0342C11.8443 75.956 11.8485 75.8739 11.8485 75.796C12.3654 59.0355 16.8576 42.8338 24.8533 28.4007C27.0765 45.9541 33.1795 62.8952 43.038 78.9424C33.1756 94.9919 27.0765 111.927 24.8533 129.48M39.2818 8.3538C39.3798 8.2518 39.4721 8.14329 39.5702 8.03933L39.5301 7.99925C39.6021 7.88519 39.6783 7.777 39.7566 7.66881L39.8586 7.52868C41.557 5.69203 43.3516 3.90329 45.1886 2.2009L45.3226 2.09662C47.9524 0.219889 50.8889 -1.09014 54.0554 -1.79306C54.0613 -1.79697 54.0714 -1.79697 54.0753 -1.79697C54.1274 -1.80316 54.1793 -1.81326 54.2356 -1.82337L54.3295 -1.84324L54.3956 -1.8553C54.4778 -1.86931 54.5599 -1.88528 54.6443 -1.90125C54.7003 -1.91135 54.7623 -1.92113 54.8245 -1.93123C54.9004 -1.9472 54.9845 -1.9573 55.067 -1.97327C55.6496 -2.06549 56.4086 -2.16945 57.336 -2.26167C57.3559 -2.26167 57.382 -2.26786 57.4042 -2.26786C57.4345 -2.27177 57.4765 -2.27177 57.5123 -2.27797C57.7587 -2.29784 58.007 -2.30795 58.2553 -2.31805V-2.34379C67.2929 -3.0969 88.5757 -2.524 109.51 15.2419C105.12 18.0321 100.621 21.0604 96.0966 24.3192C77.2172 37.9289 61.7465 52.873 50.1038 68.7439C42.3502 55.0638 36.8461 39.6254 35.336 22.4725C35.3302 22.4526 35.3302 22.4265 35.3302 22.4063C35.3139 22.1059 35.31 21.8175 35.31 21.5392C35.31 16.7882 36.6819 12.2637 39.2818 8.3538M116.487 -25.8458C134.446 -25.8458 151.845 -21.2913 167.238 -12.7429C164.969 -12.3163 162.755 -11.6551 160.604 -10.7739H160.454L159.459 -10.289C159.449 -10.2831 159.438 -10.2773 159.433 -10.2773C154.583 -8.4266 138.716 -2.04526 119.362 9.24153L118.681 8.62855C99.7692 -8.35849 80.1507 -12.7429 66.9973 -13.4298C82.0812 -21.5334 99.0223 -25.8458 116.487 -25.8458M173.793 -2.34041C178.813 -2.34041 183.596 -0.808134 187.65 2.09609L187.81 2.21015L187.82 2.22025C187.908 2.30237 187.996 2.38254 188.083 2.46661C189.935 3.85062 191.58 5.49695 192.961 7.35185C192.961 7.35381 192.961 7.35381 192.964 7.35381C193.009 7.40367 193.055 7.4519 193.102 7.50208C193.108 7.50795 193.114 7.51805 193.118 7.52391C195.621 10.9711 197.128 14.9308 197.546 19.117C197.566 19.3253 197.584 19.5335 197.6 19.7417C197.614 19.876 197.62 20.0142 197.627 20.1484C197.63 20.1664 197.63 20.1846 197.63 20.2045C197.636 20.2807 197.641 20.3609 197.644 20.4368C197.657 20.6933 197.664 20.9498 197.666 21.2101C197.669 21.2421 197.669 21.274 197.666 21.3063C197.669 21.3102 197.669 21.3141 197.666 21.3203C197.669 21.3623 197.671 21.4044 197.669 21.4484V21.5386C197.669 33.5 188.733 43.5126 177.184 45.1752C176.988 45.2032 176.792 45.2293 176.596 45.2511C176.589 45.2531 176.584 45.255 176.577 45.2531C176.507 45.2632 176.437 45.2713 176.367 45.2772C176.363 45.2792 176.359 45.2792 176.357 45.2792C176.309 45.2831 176.261 45.2893 176.211 45.2951C176.179 45.2974 176.149 45.3013 176.119 45.3033C175.969 45.3173 175.82 45.3313 175.67 45.3414C175.468 45.3574 175.266 45.3694 175.061 45.3815C174.775 45.3975 174.487 45.4095 174.196 45.4134H174.124C174.074 45.4134 174.02 45.4115 173.97 45.4095C173.966 45.4115 173.962 45.4115 173.958 45.4095C173.954 45.4115 173.95 45.4115 173.946 45.4095H173.944C172.558 45.3893 171.204 45.2811 169.864 45.0791C169.846 45.0791 169.83 45.0768 169.812 45.0709C169.745 45.0628 169.682 45.0507 169.618 45.039C158.1 43.2183 147.653 34.5874 128.007 16.9998C144.525 7.65818 158.03 2.09609 162.791 0.24543L164.618 -0.503764C167.522 -1.72157 170.611 -2.34041 173.793 -2.34041M174.543 101.46L174.203 101.45H173.794C172.042 101.45 170.257 101.584 168.496 101.846V101.852C153.232 103.968 140.812 114.579 118.073 134.997C113.007 131.86 107.782 128.397 102.54 124.622C87.0692 113.47 69.7318 98.2051 56.4904 78.9427C69.7318 59.6808 87.0692 44.4124 102.54 33.2602C107.782 29.4784 113.001 26.0215 118.067 22.8908C140.812 43.3028 153.232 53.9143 168.496 56.0293V56.0335C170.257 56.2978 172.042 56.4321 173.794 56.4321H174.265L174.543 56.422C193.439 55.9931 208.687 40.4406 208.687 21.539C208.687 13.9718 206.304 6.77154 201.785 0.708577C201.45 0.259843 201.104 -0.1827 200.747 -0.617421C200.747 -0.621658 200.744 -0.627524 200.733 -0.631434C200.727 -0.637626 200.721 -0.647727 200.717 -0.653593C199.153 -2.29797 197.549 -3.89836 195.898 -5.45475C195.895 -5.45475 195.889 -5.46062 195.884 -5.46453C195.884 -5.46453 195.826 -5.51667 195.734 -5.60498C195.636 -5.69297 195.502 -5.81713 195.348 -5.9654C195.24 -6.06349 195.125 -6.16777 195.007 -6.27988C194.522 -6.72437 193.95 -7.24513 193.603 -7.55569C193.138 -7.96825 192.675 -8.37495 192.205 -8.77741C191.999 -8.95762 191.792 -9.13392 191.582 -9.30826C191.144 -9.68498 190.705 -10.0575 190.26 -10.4237C189.797 -10.8044 189.327 -11.1869 188.852 -11.5637C188.073 -12.1864 187.284 -12.8013 186.491 -13.4C186.124 -13.6825 185.752 -13.9611 185.375 -14.2352C184.798 -14.6641 184.216 -15.0867 183.627 -15.5032C183.318 -15.7258 183.004 -15.948 182.683 -16.1641C182.239 -16.4786 181.79 -16.7832 181.341 -17.0876C180.794 -17.4601 180.237 -17.8248 179.68 -18.1871C179.072 -18.5899 178.453 -18.9803 177.834 -19.3668H177.828C177.297 -19.7034 176.761 -20.028 176.224 -20.3523C175.967 -20.5087 175.703 -20.6628 175.446 -20.817C174.982 -21.0914 174.517 -21.3599 174.053 -21.6281C173.548 -21.9165 173.047 -22.199 172.537 -22.4773C172.31 -22.6077 172.082 -22.7318 171.855 -22.854C171.835 -22.8661 171.813 -22.8762 171.793 -22.886C171.272 -23.1705 170.752 -23.4488 170.225 -23.7274C170.185 -23.7473 170.137 -23.7675 170.097 -23.7932C169.472 -24.1178 168.843 -24.4381 168.214 -24.7529C167.589 -25.0632 166.964 -25.3679 166.335 -25.6664C166.269 -25.6983 166.201 -25.7341 166.135 -25.7583C165.51 -26.0587 164.881 -26.353 164.252 -26.6355C163.906 -26.7919 163.555 -26.9461 163.205 -27.1002C162.864 -27.2504 162.524 -27.3987 162.183 -27.545C161.843 -27.6891 161.502 -27.8331 161.161 -27.9775C160.465 -28.2659 159.763 -28.5543 159.057 -28.8326C158.382 -29.0972 157.701 -29.3595 157.02 -29.6118C156.673 -29.7421 156.323 -29.8702 155.972 -29.9943C155.622 -30.1227 155.271 -30.2469 154.921 -30.3711C154.218 -30.6194 153.512 -30.8556 152.806 -31.088C152.449 -31.2063 152.092 -31.3203 151.738 -31.4324C151.382 -31.5465 151.025 -31.6609 150.668 -31.7691C147.367 -32.7845 144.005 -33.6579 140.584 -34.3748C139.929 -34.513 139.274 -34.6472 138.615 -34.7714C137.872 -34.9157 137.123 -35.0497 136.369 -35.1781C136.025 -35.24 135.678 -35.2983 135.328 -35.3544C134.549 -35.4825 133.766 -35.6007 132.981 -35.7109C131.847 -35.8689 130.701 -36.0153 129.556 -36.1433C129.087 -36.1955 128.616 -36.2457 128.147 -36.2936C128.105 -36.2936 128.07 -36.2978 128.029 -36.3037C127.44 -36.3597 126.851 -36.4158 126.264 -36.4679C126.249 -36.464 126.233 -36.4679 126.219 -36.4679C125.682 -36.5142 125.151 -36.55 124.614 -36.5862C124.556 -36.5921 124.494 -36.5979 124.438 -36.6022C124.009 -36.6282 123.583 -36.6543 123.154 -36.6801C122.732 -36.7061 122.307 -36.7263 121.884 -36.7465H121.848C121.419 -36.7684 120.993 -36.7824 120.558 -36.7983C120.115 -36.8084 119.667 -36.8244 119.222 -36.8345C118.846 -36.8443 118.469 -36.8505 118.089 -36.8544C117.634 -36.8606 117.175 -36.8665 116.717 -36.8665H116.488C116.036 -36.8665 115.575 -36.8606 115.122 -36.8544C114.796 -36.8505 114.477 -36.8443 114.153 -36.8407H114.059C113.703 -36.8345 113.342 -36.8244 112.985 -36.8084C112.599 -36.7983 112.208 -36.7824 111.819 -36.7684C111.433 -36.7524 111.046 -36.7364 110.666 -36.7162H110.614L110.303 -36.7003C110.289 -36.7003 110.277 -36.7003 110.267 -36.6963C109.845 -36.6742 109.422 -36.6481 108.999 -36.6181C108.597 -36.5921 108.198 -36.566 107.802 -36.5399C107.611 -36.5259 107.421 -36.5142 107.235 -36.494C106.404 -36.4321 105.574 -36.3597 104.747 -36.2675C104.263 -36.2215 103.778 -36.1635 103.293 -36.1114C102.808 -36.0612 102.324 -35.9993 101.839 -35.9371C101.466 -35.8911 101.096 -35.839 100.729 -35.793C100.435 -35.7529 100.142 -35.7047 99.8482 -35.6627C99.7322 -35.6467 99.6178 -35.6288 99.5014 -35.6128C99.185 -35.5646 98.8686 -35.5225 98.5518 -35.4723C98.2077 -35.4205 97.861 -35.3642 97.5204 -35.3022C76.0512 -31.7691 55.9899 -22.2251 39.5438 -7.56579C38.997 -7.08088 38.4602 -6.59011 37.9251 -6.09543L37.7433 -5.92532C35.6339 -3.97461 33.5809 -1.91735 31.6302 0.193689L31.5542 0.269945C31.0635 0.802755 30.5727 1.33948 30.094 1.88011C16.382 17.2466 7.15444 35.7815 3.12073 55.6627C3.04838 56.0234 2.97636 56.39 2.90434 56.7563C2.7942 57.3133 2.686 57.876 2.59346 58.4431C2.55761 58.6132 2.53154 58.7833 2.50156 58.9534C2.40738 59.4605 2.32526 59.9591 2.24314 60.4658C2.14505 61.0648 2.05706 61.6676 1.96875 62.2705C1.91856 62.643 1.86675 63.0135 1.81461 63.386C1.77843 63.6526 1.74259 63.9269 1.71228 64.1951C1.69664 64.2975 1.68067 64.4017 1.67024 64.5037C1.62429 64.8863 1.57835 65.2627 1.53598 65.6456C1.50991 65.8457 1.49036 66.052 1.47015 66.2544C1.43398 66.5366 1.40205 66.8214 1.37598 67.1036C1.32383 67.5901 1.27756 68.075 1.24171 68.5635C1.22183 68.776 1.20587 68.9924 1.18566 69.2045C1.16969 69.4147 1.15373 69.6331 1.13352 69.8436C1.12375 69.9156 1.11755 69.9837 1.11755 70.0557C1.11332 70.0658 1.11332 70.0818 1.11332 70.0919V70.1418C1.07747 70.6127 1.04521 71.0774 1.01555 71.546C0.99535 71.8663 0.973516 72.1808 0.959503 72.5014C0.953311 72.6194 0.943209 72.7377 0.937343 72.856C0.937343 72.9081 0.933433 72.9541 0.933433 73.0062C0.923005 73.1806 0.911273 73.3569 0.907363 73.5329C0.901171 73.569 0.901171 73.599 0.901171 73.6352C0.881292 74.0018 0.87119 74.372 0.855222 74.7386C0.839254 75.1414 0.829152 75.55 0.81905 75.9564C0.81905 76.0027 0.813184 76.0545 0.813184 76.1066C0.809273 76.2249 0.809273 76.3429 0.809273 76.4674C0.799171 76.7356 0.799171 77.0041 0.799171 77.2723C0.792979 77.4066 0.792979 77.5408 0.792979 77.6751C0.783203 78.0616 0.783203 78.4481 0.783203 78.8407C0.783203 79.2996 0.789069 79.7542 0.792979 80.2068C0.792979 80.3571 0.792979 80.5073 0.799171 80.6513C0.799171 80.7634 0.799171 80.8739 0.803082 80.9818V81.002C0.803082 81.1359 0.803082 81.2604 0.809273 81.3885C0.813184 81.5527 0.813184 81.7189 0.81905 81.8832C0.81905 81.9092 0.81905 81.9412 0.825241 81.9653C0.825241 82.0754 0.829152 82.1777 0.835344 82.2859C0.835344 82.358 0.839254 82.4362 0.839254 82.5082C0.839254 82.5339 0.839254 82.5541 0.84512 82.5802C0.84512 82.6985 0.849356 82.8226 0.855222 82.9406C0.861088 83.1691 0.865324 83.3952 0.875101 83.6217C0.89726 84.0343 0.911273 84.4468 0.933433 84.8597V84.9014C0.937343 84.9216 0.937343 84.9477 0.937343 84.9676C0.983292 85.881 1.04162 86.7902 1.10778 87.6978C1.11755 87.8118 1.12961 87.92 1.13352 88.0282C1.15959 88.3267 1.18566 88.621 1.20587 88.9195C1.22183 89.0538 1.23194 89.1877 1.24171 89.322C1.25801 89.4983 1.27756 89.6684 1.29385 89.843V89.8489C1.32383 90.1631 1.3561 90.4778 1.39194 90.7923C1.42225 91.0925 1.44799 91.3913 1.47993 91.6856C1.62853 93.0477 1.80483 94.4034 1.99514 95.7496C2.00101 95.7955 2.01079 95.8438 2.01698 95.8897C2.02089 95.9357 2.03099 95.9816 2.03686 96.0279C2.23727 97.3738 2.46571 98.7118 2.70784 100.042V100.052C2.72804 100.166 2.75411 100.278 2.77399 100.392C2.89196 101.027 3.01612 101.662 3.1468 102.291C3.27454 102.926 3.4088 103.555 3.54697 104.184C3.55317 104.21 3.55903 104.23 3.56327 104.256C3.6972 104.861 3.83766 105.458 3.9817 106.056C4.00777 106.185 4.03775 106.315 4.07392 106.439C4.22806 107.084 4.38839 107.727 4.55883 108.368C4.72502 109.013 4.89937 109.652 5.07925 110.291C5.19364 110.693 5.30802 111.096 5.42599 111.494C5.52408 111.845 5.63227 112.189 5.73427 112.54C5.89069 113.057 6.05102 113.573 6.20907 114.082C6.31726 114.429 6.43132 114.769 6.54538 115.11C6.61772 115.342 6.69561 115.574 6.77186 115.807C6.77773 115.833 6.78816 115.857 6.79793 115.879C6.84388 116.017 6.89016 116.157 6.94197 116.292C7.25644 117.231 7.58721 118.164 7.93362 119.088C8.12361 119.602 8.31424 120.119 8.51629 120.63C8.52672 120.666 8.54236 120.696 8.55246 120.728C8.74864 121.239 8.94905 121.749 9.15534 122.254C9.36781 122.781 9.58419 123.302 9.80025 123.823C10.0225 124.343 10.2428 124.86 10.4712 125.381C10.8678 126.288 11.2765 127.191 11.6929 128.083C11.8634 128.439 12.0335 128.796 12.2039 129.15C12.4562 129.683 12.7146 130.208 12.9769 130.731C13.3435 131.462 13.7199 132.189 14.0966 132.912C14.7474 134.149 15.4226 135.377 16.1255 136.589C16.8307 137.827 17.5636 139.051 18.3167 140.259C18.6312 140.769 18.9555 141.278 19.2862 141.785C19.6988 142.424 20.1175 143.059 20.5457 143.694C20.9124 144.24 21.2832 144.781 21.6596 145.318C21.6756 145.344 21.6958 145.37 21.7114 145.396C22.0562 145.885 22.4065 146.376 22.7591 146.86L23.6246 148.036C23.6347 148.052 23.6507 148.072 23.6667 148.088C23.9711 148.501 24.2793 148.913 24.5899 149.322C24.6521 149.398 24.7082 149.47 24.7642 149.548C24.8222 149.626 24.8845 149.698 24.9464 149.775C25.1527 150.049 25.3632 150.317 25.5754 150.59C25.9061 151.012 26.2405 151.437 26.581 151.853C27.0196 152.396 27.4622 152.933 27.9129 153.468C28.3756 154.021 28.84 154.568 29.3151 155.108C29.5674 155.409 29.8313 155.707 30.094 156.001C30.1002 156.012 30.1099 156.017 30.12 156.028C30.3882 156.326 30.6607 156.63 30.9351 156.931C31.0335 157.043 31.1355 157.157 31.2437 157.269C31.374 157.41 31.5018 157.55 31.6302 157.688C32.2132 158.317 32.8079 158.948 33.4049 159.567C33.7572 159.927 34.1081 160.288 34.4682 160.644C34.5666 160.747 34.6748 160.851 34.7768 160.959C35.2373 161.418 35.7001 161.872 36.1709 162.325C36.6917 162.826 37.2183 163.322 37.7433 163.811L37.9251 163.977C38.4602 164.472 39.0032 164.967 39.55 165.447C52.1383 176.676 66.8517 184.886 82.6871 189.707C82.8272 189.749 82.9693 189.793 83.1117 189.835C83.9368 190.083 84.7639 190.324 85.5952 190.554C85.9175 190.642 86.2401 190.726 86.5624 190.812C87.2657 190.999 87.9667 191.187 88.6715 191.361C89.7235 191.622 90.7787 191.87 91.8423 192.1C92.3109 192.205 92.7799 192.303 93.2504 192.401C93.719 192.499 94.1935 192.591 94.6683 192.679C94.6983 192.689 94.7306 192.693 94.7606 192.699C95.0128 192.745 95.2673 192.791 95.5199 192.837C95.9425 192.916 96.3648 192.994 96.7937 193.066C96.8237 193.076 96.8556 193.082 96.8856 193.086L97.3826 193.164C97.9072 193.252 98.428 193.334 98.9549 193.416C99.3633 193.478 99.7758 193.54 100.183 193.596C100.214 193.606 100.245 193.613 100.275 193.613C100.316 193.617 100.353 193.622 100.395 193.629C100.873 193.695 101.358 193.763 101.839 193.823C102.324 193.885 102.808 193.943 103.293 193.999C103.778 194.051 104.263 194.107 104.747 194.153C105.238 194.205 105.722 194.251 106.213 194.294C106.652 194.334 107.091 194.37 107.529 194.402C107.621 194.418 107.714 194.422 107.808 194.428C108.731 194.494 109.658 194.552 110.592 194.602C110.614 194.602 110.64 194.608 110.666 194.602C111.046 194.624 111.433 194.638 111.819 194.654C112.362 194.674 112.909 194.696 113.456 194.71C114.003 194.726 114.549 194.736 115.096 194.742C115.561 194.746 116.024 194.752 116.488 194.752C116.947 194.752 117.402 194.746 117.857 194.742C118.315 194.736 118.77 194.732 119.222 194.722C119.868 194.706 120.512 194.686 121.153 194.66C121.796 194.634 122.441 194.602 123.082 194.566C123.577 194.54 124.067 194.51 124.562 194.474C127.044 194.309 129.499 194.061 131.933 193.741C132.702 193.639 133.465 193.531 134.228 193.416C134.27 193.406 134.316 193.4 134.358 193.396C135.137 193.272 135.917 193.148 136.694 193.01C137.154 192.925 137.617 192.843 138.082 192.761C138.841 192.617 139.594 192.467 140.347 192.312C141.136 192.142 141.926 191.972 142.709 191.792C143.5 191.612 144.277 191.419 145.056 191.223C145.396 191.141 145.737 191.053 146.078 190.961C147.678 190.542 149.266 190.089 150.839 189.605C151.185 189.497 151.532 189.388 151.876 189.278C152.671 189.022 153.461 188.763 154.25 188.489C154.626 188.361 155.003 188.233 155.379 188.099C155.75 187.964 156.126 187.83 156.499 187.69C157.242 187.417 157.983 187.139 158.722 186.849C159.093 186.704 159.459 186.56 159.826 186.41C160.192 186.266 160.559 186.112 160.926 185.961C161.29 185.813 161.656 185.657 162.019 185.503C162.396 185.343 162.776 185.178 163.153 185.012C163.83 184.714 164.499 184.415 165.166 184.105C165.913 183.76 166.656 183.404 167.393 183.043C167.749 182.873 168.1 182.697 168.45 182.522C168.807 182.34 169.158 182.166 169.504 181.985C170.107 181.675 170.71 181.361 171.303 181.036C172.18 180.565 173.047 180.087 173.908 179.596C174.161 179.452 174.413 179.308 174.667 179.157C176.023 178.374 177.359 177.559 178.679 176.718C179.01 176.512 179.341 176.299 179.665 176.083C181.399 174.959 183.102 173.788 184.762 172.57C185.077 172.344 185.391 172.111 185.706 171.879C185.934 171.705 186.164 171.534 186.393 171.364C186.701 171.132 187.006 170.899 187.306 170.661C187.935 170.176 188.564 169.682 189.183 169.187C189.719 168.748 190.257 168.31 190.787 167.867C191.174 167.541 191.56 167.216 191.943 166.892C192.205 166.663 192.47 166.437 192.726 166.211C193.02 165.952 193.315 165.694 193.603 165.437C193.95 165.127 194.3 164.816 194.647 164.498C194.991 164.188 195.332 163.869 195.672 163.548C195.738 163.48 195.812 163.42 195.884 163.346C195.905 163.332 195.924 163.31 195.947 163.296C197.679 161.882 199.263 160.304 200.675 158.581C200.698 158.559 200.712 158.533 200.733 158.513C201.098 158.074 201.45 157.626 201.785 157.173C206.304 151.11 208.687 143.91 208.687 136.347C208.687 117.447 193.439 101.888 174.543 101.46" fill="#1CD8C7"/>
</g>
<defs>
<clipPath id="clip0_145_6470">
<rect width="108.866" height="158" fill="white" transform="translate(0.785156)"/>
</clipPath>
</defs>
</svg>
